<svg xmlns="http://www.w3.org/2000/svg" xmlns:xlink="http://www.w3.org/1999/xlink" contentStyleType="text/css" data-diagram-type="DESCRIPTION" height="719px" preserveAspectRatio="none" style="width:2637px;height:719px;background:#FFFFFF;" version="1.1" viewBox="0 0 2637 719" width="2637px" zoomAndPan="magnify"><title>Furzefield Leisure Centre</title><defs/><g><g class="title" data-source-line="14"><text fill="#000000" font-family="sans-serif" font-size="14" font-weight="bold" lengthAdjust="spacing" textLength="168.041" x="1227.6048" y="24.5332">Furzefield Leisure Centre</text><text fill="#000000" font-family="sans-serif" font-size="14" font-weight="bold" lengthAdjust="spacing" textLength="259.8682" x="1181.6912" y="42.1426">Use Case Diagram - Module 7COM1025</text></g><!--cluster Timetable--><g class="cluster" data-entity="Timetable" data-source-line="102" data-uid="ent0003" id="cluster_Timetable"><rect fill="#EAF4FB" height="270" style="stroke:#2980B9;stroke-width:1.5;" width="457" x="1786.69" y="63.2188"/><text fill="#1A5276" font-family="sans-serif" font-size="12" font-weight="bold" lengthAdjust="spacing" textLength="66.0293" x="1982.1754" y="77.6758">&#171;timetable&#187;</text><text fill="#1A5276" font-family="sans-serif" font-size="12" font-weight="bold" lengthAdjust="spacing" textLength="56.0156" x="1987.1822" y="92.7695">Timetable</text></g><!--cluster Bookings--><g class="cluster" data-entity="Bookings" data-source-line="109" data-uid="ent0008" id="cluster_Bookings"><rect fill="#F3EFFD" height="256" style="stroke:#6C63FF;stroke-width:1.5;" width="459" x="40.69" y="238.7188"/><text fill="#3B1F8C" font-family="sans-serif" font-size="12" font-weight="bold" lengthAdjust="spacing" textLength="66.6797" x="236.8502" y="253.1758">&#171;bookings&#187;</text><text fill="#3B1F8C" font-family="sans-serif" font-size="12" font-weight="bold" lengthAdjust="spacing" textLength="54.668" x="242.856" y="268.2695">Bookings</text></g><!--cluster Members--><g class="cluster" data-entity="Members" data-source-line="116" data-uid="ent0013" id="cluster_Members"><rect fill="#EAF5EE" height="382" style="stroke:#2D6A4F;stroke-width:1.5;" width="491" x="848.69" y="237.2188"/><text fill="#1B4332" font-family="sans-serif" font-size="12" font-weight="bold" lengthAdjust="spacing" textLength="66.709" x="1060.8355" y="251.6758">&#171;members&#187;</text><text fill="#1B4332" font-family="sans-serif" font-size="12" font-weight="bold" lengthAdjust="spacing" textLength="52.6875" x="1067.8463" y="266.7695">Members</text></g><!--cluster Reviews--><g class="cluster" data-entity="Reviews" data-source-line="124" data-uid="ent0019" id="cluster_Reviews"><rect fill="#FEF9E7" height="94" style="stroke:#D4A017;stroke-width:1.5;" width="301" x="523.69" y="238.7188"/><text fill="#7D5A00" font-family="sans-serif" font-size="12" font-weight="bold" lengthAdjust="spacing" textLength="57.3809" x="645.4996" y="253.1758">&#171;reviews&#187;</text><text fill="#7D5A00" font-family="sans-serif" font-size="12" font-weight="bold" lengthAdjust="spacing" textLength="48.0293" x="650.1754" y="268.2695">Reviews</text></g><!--cluster Reports--><g class="cluster" data-entity="Reports" data-source-line="129" data-uid="ent0022" id="cluster_Reports"><rect fill="#E8FAF5" height="257.5" style="stroke:#1ABC9C;stroke-width:1.5;" width="352" x="1410.69" y="239.7188"/><text fill="#0E6655" font-family="sans-serif" font-size="12" font-weight="bold" lengthAdjust="spacing" textLength="54.6914" x="1559.3443" y="254.1758">&#171;reports&#187;</text><text fill="#0E6655" font-family="sans-serif" font-size="12" font-weight="bold" lengthAdjust="spacing" textLength="45.3398" x="1564.0201" y="269.2695">Reports</text></g><!--cluster System (automatic)--><g class="cluster" data-entity="System .automatic." data-source-line="135" data-uid="ent0026" id="cluster_System .automatic."><rect fill="#F4F4F2" height="94" style="stroke:#888780;stroke-width:1.5;stroke-dasharray:7,7;" width="152" x="557.69" y="400.2188"/><text fill="#5F5E5A" font-family="sans-serif" font-size="12" font-weight="bold" lengthAdjust="spacing" textLength="54.709" x="606.3355" y="414.6758">&#171;system&#187;</text><text fill="#5F5E5A" font-family="sans-serif" font-size="12" font-weight="bold" lengthAdjust="spacing" textLength="110.6953" x="578.3423" y="429.7695">System (automatic)</text></g><!--entity UC_BROWSE--><g class="entity" data-entity="UC_BROWSE" data-source-line="103" data-uid="ent0004" id="entity_UC_BROWSE"><ellipse cx="1925.702" cy="302.1212" fill="#F5F5F3" rx="62.512" ry="14.9024" style="stroke:#2D6A4F;stroke-width:1.5;"/><text fill="#000000" font-family="sans-serif" font-size="12" lengthAdjust="spacing" textLength="92.0391" x="1879.6825" y="306.168">Browse timetable</text></g><!--entity UC_FILTER_DAY--><g class="entity" data-entity="UC_FILTER_DAY" data-source-line="104" data-uid="ent0005" id="entity_UC_FILTER_DAY"><ellipse cx="2178.9033" cy="129.3916" fill="#F5F5F3" rx="49.2133" ry="13.6729" style="stroke:#2D6A4F;stroke-width:1.5;"/><text fill="#000000" font-family="sans-serif" font-size="12" lengthAdjust="spacing" textLength="65.3555" x="2146.2256" y="133.4385">Filter by day</text></g><!--entity UC_FILTER_EX--><g class="entity" data-entity="UC_FILTER_EX" data-source-line="105" data-uid="ent0006" id="entity_UC_FILTER_EX"><ellipse cx="2021.6811" cy="129.117" fill="#F5F5F3" rx="72.4911" ry="16.8982" style="stroke:#2D6A4F;stroke-width:1.5;"/><text fill="#000000" font-family="sans-serif" font-size="12" lengthAdjust="spacing" textLength="116.707" x="1963.3276" y="133.1638">Filter by exercise type</text></g><!--entity UC_FILTER_WK--><g class="entity" data-entity="UC_FILTER_WK" data-source-line="106" data-uid="ent0007" id="entity_UC_FILTER_WK"><ellipse cx="1858.5311" cy="129.3916" fill="#F5F5F3" rx="55.3411" ry="13.6729" style="stroke:#2D6A4F;stroke-width:1.5;"/><text fill="#000000" font-family="sans-serif" font-size="12" lengthAdjust="spacing" textLength="74.0215" x="1821.5204" y="133.4385">Filter by week</text></g><!--entity UC_BOOK_MGR--><g class="entity" data-entity="UC_BOOK_MGR" data-source-line="110" data-uid="ent0009" id="entity_UC_BOOK_MGR"><ellipse cx="163.7502" cy="463.8308" fill="#F5F5F3" rx="63.5602" ry="15.112" style="stroke:#2D6A4F;stroke-width:1.5;"/><text fill="#000000" font-family="sans-serif" font-size="12" lengthAdjust="spacing" textLength="94.7344" x="116.383" y="467.8777">Manage bookings</text></g><!--entity UC_CREATE--><g class="entity" data-entity="UC_CREATE" data-source-line="111" data-uid="ent0010" id="entity_UC_CREATE"><ellipse cx="268.6862" cy="302.318" fill="#F5F5F3" rx="58.4962" ry="14.0992" style="stroke:#2D6A4F;stroke-width:1.5;"/><text fill="#000000" font-family="sans-serif" font-size="12" lengthAdjust="spacing" textLength="81.3867" x="227.9929" y="306.3649">Create booking</text></g><!--entity UC_CHANGE--><g class="entity" data-entity="UC_CHANGE" data-source-line="112" data-uid="ent0011" id="entity_UC_CHANGE"><ellipse cx="422.9287" cy="302.2665" fill="#F5F5F3" rx="60.7387" ry="14.5477" style="stroke:#2D6A4F;stroke-width:1.5;"/><text fill="#000000" font-family="sans-serif" font-size="12" lengthAdjust="spacing" textLength="87.4043" x="379.2266" y="306.3134">Change booking</text></g><!--entity UC_CANCEL--><g class="entity" data-entity="UC_CANCEL" data-source-line="113" data-uid="ent0012" id="entity_UC_CANCEL"><ellipse cx="115.6779" cy="302.4163" fill="#F5F5F3" rx="58.9879" ry="14.1976" style="stroke:#2D6A4F;stroke-width:1.5;"/><text fill="#000000" font-family="sans-serif" font-size="12" lengthAdjust="spacing" textLength="82.7227" x="74.3166" y="306.4632">Cancel booking</text></g><!--entity UC_MEM_MGR--><g class="entity" data-entity="UC_MEM_MGR" data-source-line="117" data-uid="ent0014" id="entity_UC_MEM_MGR"><ellipse cx="1179.5255" cy="463.4858" fill="#F5F5F3" rx="64.3355" ry="15.2671" style="stroke:#2D6A4F;stroke-width:1.5;"/><text fill="#000000" font-family="sans-serif" font-size="12" lengthAdjust="spacing" textLength="96.709" x="1131.171" y="467.5327">Manage members</text></g><!--entity UC_VIEW_MEM--><g class="entity" data-entity="UC_VIEW_MEM" data-source-line="118" data-uid="ent0015" id="entity_UC_VIEW_MEM"><ellipse cx="1179.7341" cy="588.3276" fill="#F5F5F3" rx="63.5441" ry="15.1088" style="stroke:#2D6A4F;stroke-width:1.5;"/><text fill="#000000" font-family="sans-serif" font-size="12" lengthAdjust="spacing" textLength="94.6934" x="1132.3874" y="592.3745">View all members</text></g><!--entity UC_ADD_MEM--><g class="entity" data-entity="UC_ADD_MEM" data-source-line="119" data-uid="ent0016" id="entity_UC_ADD_MEM"><ellipse cx="1099.4802" cy="302.2768" fill="#F5F5F3" rx="63.2902" ry="15.058" style="stroke:#2D6A4F;stroke-width:1.5;"/><text fill="#000000" font-family="sans-serif" font-size="12" lengthAdjust="spacing" textLength="94.043" x="1052.4587" y="306.3237">Add new member</text></g><!--entity UC_EDIT_MEM--><g class="entity" data-entity="UC_EDIT_MEM" data-source-line="120" data-uid="ent0017" id="entity_UC_EDIT_MEM"><ellipse cx="932.7681" cy="302.2344" fill="#F5F5F3" rx="68.0781" ry="16.0156" style="stroke:#2D6A4F;stroke-width:1.5;"/><text fill="#000000" font-family="sans-serif" font-size="12" lengthAdjust="spacing" textLength="106.043" x="879.7466" y="306.2812">Edit member details</text></g><!--entity UC_SEARCH--><g class="entity" data-entity="UC_SEARCH" data-source-line="121" data-uid="ent0018" id="entity_UC_SEARCH"><ellipse cx="1260.4419" cy="302.0691" fill="#F5F5F3" rx="62.2519" ry="14.8504" style="stroke:#2D6A4F;stroke-width:1.5;"/><text fill="#000000" font-family="sans-serif" font-size="12" lengthAdjust="spacing" textLength="91.3652" x="1214.7593" y="306.116">Search members</text></g><!--entity UC_REVIEW--><g class="entity" data-entity="UC_REVIEW" data-source-line="125" data-uid="ent0020" id="entity_UC_REVIEW"><ellipse cx="596.4757" cy="302.3916" fill="#F5F5F3" rx="56.2857" ry="13.6729" style="stroke:#2D6A4F;stroke-width:1.5;"/><text fill="#000000" font-family="sans-serif" font-size="12" lengthAdjust="spacing" textLength="75.3574" x="558.797" y="306.4385">Submit review</text></g><!--entity UC_VIEW_REV--><g class="entity" data-entity="UC_VIEW_REV" data-source-line="126" data-uid="ent0021" id="entity_UC_VIEW_REV"><ellipse cx="748.6588" cy="302.1125" fill="#F5F5F3" rx="59.9688" ry="14.3938" style="stroke:#2D6A4F;stroke-width:1.5;"/><text fill="#000000" font-family="sans-serif" font-size="12" lengthAdjust="spacing" textLength="85.3594" x="705.9791" y="306.1594">View all reviews</text></g><!--entity UC_REPORTS--><g class="entity" data-entity="UC_REPORTS" data-source-line="130" data-uid="ent0023" id="entity_UC_REPORTS"><ellipse cx="1493.8479" cy="302.3916" fill="#F5F5F3" rx="50.1579" ry="13.6729" style="stroke:#2D6A4F;stroke-width:1.5;"/><text fill="#000000" font-family="sans-serif" font-size="12" lengthAdjust="spacing" textLength="66.6914" x="1460.5022" y="306.4385">View reports</text></g><!--entity UC_ATTEND--><g class="entity" data-entity="UC_ATTEND" data-source-line="131" data-uid="ent0024" id="entity_UC_ATTEND"><ellipse cx="1670.5184" cy="463.6844" fill="#F5F5F3" rx="75.3284" ry="17.4657" style="stroke:#2D6A4F;stroke-width:1.5;"/><text fill="#000000" font-family="sans-serif" font-size="12" lengthAdjust="spacing" textLength="123.4102" x="1608.8133" y="467.7313">View attendance report</text></g><!--entity UC_INCOME--><g class="entity" data-entity="UC_INCOME" data-source-line="132" data-uid="ent0025" id="entity_UC_INCOME"><ellipse cx="1493.9173" cy="463.9642" fill="#F5F5F3" rx="66.7273" ry="15.7455" style="stroke:#2D6A4F;stroke-width:1.5;"/><text fill="#000000" font-family="sans-serif" font-size="12" lengthAdjust="spacing" textLength="102.709" x="1442.5628" y="468.0111">View income report</text></g><!--entity UC_SAVE--><g class="entity" data-entity="UC_SAVE" data-source-line="136" data-uid="ent0027" id="entity_UC_SAVE"><ellipse cx="633.9204" cy="463.6648" fill="#F5F5F3" rx="60.2304" ry="14.4461" style="stroke:#2D6A4F;stroke-width:1.5;"/><text fill="#000000" font-family="sans-serif" font-size="12" lengthAdjust="spacing" textLength="86.0566" x="590.8921" y="467.7117">Save data to file</text></g><!--entity Staff--><g class="entity" data-entity="Staff" data-source-line="95" data-uid="ent0002" id="entity_Staff"><ellipse cx="1219.6968" cy="106.2969" fill="#E8F5EE" rx="8" ry="8" style="stroke:#2D6A4F;stroke-width:1.5;"/><path d="M1219.6968,114.2969 L1219.6968,141.2969 M1206.6968,122.2969 L1232.6968,122.2969 M1219.6968,141.2969 L1206.6968,156.2969 M1219.6968,141.2969 L1232.6968,156.2969" fill="none" style="stroke:#2D6A4F;stroke-width:1.5;"/><text fill="#1B4332" font-family="sans-serif" font-size="12" font-weight="bold" lengthAdjust="spacing" textLength="76.0137" x="1181.69" y="171.2539">Staff Member</text><text fill="#1B4332" font-family="sans-serif" font-size="10" font-weight="bold" lengthAdjust="spacing" textLength="43.9014" x="1197.7462" y="94.5996">&#171;human&#187;</text></g><g class="entity" data-entity="GMN52" data-source-line="200" data-uid="ent0053" id="entity_GMN52"><path d="M2259.69,267.2188 L2259.69,337.5938 L2437.44,337.5938 L2437.44,277.2188 L2427.44,267.2188 L2259.69,267.2188" fill="#FFFDE7" style="stroke:#F4C430;stroke-width:0.5;"/><path d="M2427.44,267.2188 L2427.44,277.2188 L2437.44,277.2188 L2427.44,267.2188" fill="#FFFDE7" style="stroke:#F4C430;stroke-width:1;"/><text fill="#000000" font-family="sans-serif" font-size="12" lengthAdjust="spacing" textLength="52.6992" x="2265.69" y="284.6758">Validates:</text><text fill="#000000" font-family="sans-serif" font-size="12" lengthAdjust="spacing" textLength="124.7109" x="2265.69" y="299.7695">- lesson not full (max 4)</text><text fill="#000000" font-family="sans-serif" font-size="12" lengthAdjust="spacing" textLength="87.3633" x="2265.69" y="314.8633">- no time conflict</text><text fill="#000000" font-family="sans-serif" font-size="12" lengthAdjust="spacing" textLength="156.75" x="2265.69" y="329.957">- member not already booked</text></g><g class="entity" data-entity="GMN55" data-source-line="207" data-uid="ent0056" id="entity_GMN55"><path d="M2473.19,267.2188 L2473.19,337.5938 L2630.2505,337.5938 L2630.2505,277.2188 L2620.2505,267.2188 L2473.19,267.2188" fill="#FFFDE7" style="stroke:#F4C430;stroke-width:0.5;"/><path d="M2620.2505,267.2188 L2620.2505,277.2188 L2630.2505,277.2188 L2620.2505,267.2188" fill="#FFFDE7" style="stroke:#F4C430;stroke-width:1;"/><text fill="#000000" font-family="sans-serif" font-size="12" lengthAdjust="spacing" textLength="136.0605" x="2479.19" y="284.6758">Member must be enrolled</text><text fill="#000000" font-family="sans-serif" font-size="12" lengthAdjust="spacing" textLength="131.3965" x="2479.19" y="299.7695">in the lesson to review it.</text><text fill="#000000" font-family="sans-serif" font-size="12" lengthAdjust="spacing" textLength="128.7129" x="2479.19" y="314.8633">One review per member</text><text fill="#000000" font-family="sans-serif" font-size="12" lengthAdjust="spacing" textLength="58.6992" x="2479.19" y="329.957">per lesson.</text></g><g class="entity" data-entity="GMN58" data-source-line="214" data-uid="ent0059" id="entity_GMN58"><path d="M554.69,560.7188 L554.69,616 L712.4244,616 L712.4244,570.7188 L702.4244,560.7188 L554.69,560.7188" fill="#FFFDE7" style="stroke:#F4C430;stroke-width:0.5;"/><path d="M702.4244,560.7188 L702.4244,570.7188 L712.4244,570.7188 L702.4244,560.7188" fill="#FFFDE7" style="stroke:#F4C430;stroke-width:1;"/><text fill="#000000" font-family="sans-serif" font-size="12" lengthAdjust="spacing" textLength="102.0293" x="560.69" y="578.1758">Writes flc-data.json</text><text fill="#000000" font-family="sans-serif" font-size="12" lengthAdjust="spacing" textLength="136.7344" x="560.69" y="593.2695">automatically - no manual</text><text fill="#000000" font-family="sans-serif" font-size="12" lengthAdjust="spacing" textLength="111.3984" x="560.69" y="608.3633">save action required.</text></g><g class="entity" data-entity="GMN61" data-source-line="220" data-uid="ent0062" id="entity_GMN61"><path d="M1781.69,443.7188 L1781.69,483.9063 L1948.0904,483.9063 L1948.0904,453.7188 L1938.0904,443.7188 L1781.69,443.7188" fill="#FFFDE7" style="stroke:#F4C430;stroke-width:0.5;"/><path d="M1938.0904,443.7188 L1938.0904,453.7188 L1948.0904,453.7188 L1938.0904,443.7188" fill="#FFFDE7" style="stroke:#F4C430;stroke-width:1;"/><text fill="#000000" font-family="sans-serif" font-size="12" lengthAdjust="spacing" textLength="145.4004" x="1787.69" y="461.1758">Sorted highest income first.</text><text fill="#000000" font-family="sans-serif" font-size="12" lengthAdjust="spacing" textLength="114.0645" x="1787.69" y="476.2695">Highlights top earner.</text></g><!--link Staff to UC_BROWSE--><g class="link" data-entity-1="Staff" data-entity-2="UC_BROWSE" data-source-line="143" data-uid="lnk28" id="link_Staff_UC_BROWSE"><path d="M1257.95,134.0587 C1347.7,143.7387 1578.12,172.4987 1762.69,229.2188 C1813.85,244.9388 1864.9759,269.5514 1896.1959,285.6314" fill="none" id="Staff-to-UC_BROWSE" style="stroke:#2D6A4F;stroke-width:1.5;"/><polygon fill="#2D6A4F" points="1901.53,288.3788,1895.3605,280.7017,1897.085,286.0893,1891.6974,287.8138,1901.53,288.3788" style="stroke:#2D6A4F;stroke-width:1.5;"/></g><!--link Staff to UC_BOOK_MGR--><g class="link" data-entity-1="Staff" data-entity-2="UC_BOOK_MGR" data-source-line="144" data-uid="lnk29" id="link_Staff_UC_BOOK_MGR"><path d="M1181.38,130.4287 C987.29,131.8988 118.75,143.2487 39.69,229.2188 C6,265.8588 20.41,295.3288 39.69,341.2188 C60.48,390.6788 107.2916,426.8101 136.9416,446.2401" fill="none" id="Staff-to-UC_BOOK_MGR" style="stroke:#2D6A4F;stroke-width:1.5;"/><polygon fill="#2D6A4F" points="141.96,449.5288,136.6248,441.2501,137.778,446.7882,132.2399,447.9414,141.96,449.5288" style="stroke:#2D6A4F;stroke-width:1.5;"/></g><!--link Staff to UC_MEM_MGR--><g class="link" data-entity-1="Staff" data-entity-2="UC_MEM_MGR" data-source-line="145" data-uid="lnk30" id="link_Staff_UC_MEM_MGR"><path d="M1257.82,149.3388 C1286.5,166.0587 1323.67,193.2888 1340.69,229.2188 C1362.01,274.1988 1362.51,296.4788 1340.69,341.2188 C1314.07,395.8288 1255.0346,429.7292 1216.2346,447.5092" fill="none" id="Staff-to-UC_MEM_MGR" style="stroke:#2D6A4F;stroke-width:1.5;"/><polygon fill="#2D6A4F" points="1210.78,450.0087,1220.6282,449.8958,1215.3255,447.9258,1217.2955,442.6231,1210.78,450.0087" style="stroke:#2D6A4F;stroke-width:1.5;"/></g><!--link Staff to UC_REVIEW--><g class="link" data-entity-1="Staff" data-entity-2="UC_REVIEW" data-source-line="146" data-uid="lnk31" id="link_Staff_UC_REVIEW"><path d="M1181.43,129.7188 C1088.66,130.0288 846.51,140.0088 671.69,229.2188 C643.4,243.6588 622.2347,267.5357 609.4747,284.0057" fill="none" id="Staff-to-UC_REVIEW" style="stroke:#2D6A4F;stroke-width:1.5;"/><polygon fill="#2D6A4F" points="605.8,288.7488,614.4741,284.0839,608.8622,284.7962,608.1499,279.1843,605.8,288.7488" style="stroke:#2D6A4F;stroke-width:1.5;"/></g><!--link Staff to UC_VIEW_REV--><g class="link" data-entity-1="Staff" data-entity-2="UC_VIEW_REV" data-source-line="147" data-uid="lnk32" id="link_Staff_UC_VIEW_REV"><path d="M1181.53,135.7088 C1112.47,146.6488 963.31,174.9188 848.69,229.2188 C815.44,244.9688 786.2627,268.1275 767.7227,284.2075" fill="none" id="Staff-to-UC_VIEW_REV" style="stroke:#2D6A4F;stroke-width:1.5;"/><polygon fill="#2D6A4F" points="763.19,288.1388,772.6099,285.2637,766.9672,284.8627,767.3682,279.2201,763.19,288.1388" style="stroke:#2D6A4F;stroke-width:1.5;"/></g><!--link Staff to UC_REPORTS--><g class="link" data-entity-1="Staff" data-entity-2="UC_REPORTS" data-source-line="148" data-uid="lnk33" id="link_Staff_UC_REPORTS"><path d="M1257.79,140.3388 C1296.53,151.7987 1357.18,173.0288 1402.69,204.2188 C1438.12,228.4987 1466.5542,263.8659 1481.3942,284.0359" fill="none" id="Staff-to-UC_REPORTS" style="stroke:#2D6A4F;stroke-width:1.5;"/><polygon fill="#2D6A4F" points="1484.95,288.8688,1482.8383,279.2489,1481.9869,284.8414,1476.3945,283.99,1484.95,288.8688" style="stroke:#2D6A4F;stroke-width:1.5;"/></g><!--link UC_FILTER_DAY to UC_BROWSE--><g class="link" data-entity-1="UC_FILTER_DAY" data-entity-2="UC_BROWSE" data-source-line="154" data-uid="lnk34" id="link_UC_FILTER_DAY_UC_BROWSE"><path d="M2161.3,141.9688 C2115.87,172.6787 1998.7511,251.8389 1950.5911,284.3889" fill="none" id="UC_FILTER_DAY-to-UC_BROWSE" style="stroke:#2D6A4F;stroke-width:1.5;stroke-dasharray:7,7;"/><polygon fill="#2D6A4F" points="1945.62,287.7488,1955.3165,286.0231,1949.7626,284.9489,1950.8367,279.395,1945.62,287.7488" style="stroke:#2D6A4F;stroke-width:1.5;"/><text fill="#000000" font-family="sans-serif" font-size="12" lengthAdjust="spacing" textLength="49.377" x="2067.69" y="217.6758">&#171;extend&#187;</text></g><!--link UC_FILTER_EX to UC_BROWSE--><g class="link" data-entity-1="UC_FILTER_EX" data-entity-2="UC_BROWSE" data-source-line="155" data-uid="lnk35" id="link_UC_FILTER_EX_UC_BROWSE"><path d="M2012.66,146.3087 C1993.99,179.5587 1954.3466,250.1765 1936.6166,281.7665" fill="none" id="UC_FILTER_EX-to-UC_BROWSE" style="stroke:#2D6A4F;stroke-width:1.5;stroke-dasharray:7,7;"/><polygon fill="#2D6A4F" points="1933.68,286.9988,1941.5731,281.1081,1936.1272,282.6386,1934.5968,277.1927,1933.68,286.9988" style="stroke:#2D6A4F;stroke-width:1.5;"/><text fill="#000000" font-family="sans-serif" font-size="12" lengthAdjust="spacing" textLength="49.377" x="1979.69" y="217.6758">&#171;extend&#187;</text></g><!--link UC_FILTER_WK to UC_BROWSE--><g class="link" data-entity-1="UC_FILTER_WK" data-entity-2="UC_BROWSE" data-source-line="156" data-uid="lnk36" id="link_UC_FILTER_WK_UC_BROWSE"><path d="M1863.62,142.7888 C1875.83,173.9488 1905.2319,248.992 1918.0119,281.622" fill="none" id="UC_FILTER_WK-to-UC_BROWSE" style="stroke:#2D6A4F;stroke-width:1.5;stroke-dasharray:7,7;"/><polygon fill="#2D6A4F" points="1920.2,287.2088,1920.6423,277.3698,1918.3766,282.5531,1913.1933,280.2873,1920.2,287.2088" style="stroke:#2D6A4F;stroke-width:1.5;"/><text fill="#000000" font-family="sans-serif" font-size="12" lengthAdjust="spacing" textLength="49.377" x="1894.69" y="217.6758">&#171;extend&#187;</text></g><!--link UC_CREATE to UC_BOOK_MGR--><g class="link" data-entity-1="UC_CREATE" data-entity-2="UC_BOOK_MGR" data-source-line="162" data-uid="lnk37" id="link_UC_CREATE_UC_BOOK_MGR"><path d="M248.08,315.3888 C230.63,326.7188 206.2,345.1388 191.69,367.2188 C174.81,392.9188 168.6787,423.1035 166.0087,442.7335" fill="none" id="UC_CREATE-to-UC_BOOK_MGR" style="stroke:#2D6A4F;stroke-width:1.5;stroke-dasharray:7,7;"/><polygon fill="#2D6A4F" points="165.2,448.6788,170.3765,440.3,165.8739,443.7244,162.4495,439.2218,165.2,448.6788" style="stroke:#2D6A4F;stroke-width:1.5;"/><text fill="#000000" font-family="sans-serif" font-size="12" lengthAdjust="spacing" textLength="49.377" x="192.69" y="380.6758">&#171;extend&#187;</text></g><!--link UC_CHANGE to UC_BOOK_MGR--><g class="link" data-entity-1="UC_CHANGE" data-entity-2="UC_BOOK_MGR" data-source-line="163" data-uid="lnk38" id="link_UC_CHANGE_UC_BOOK_MGR"><path d="M398.27,315.5588 C382.98,323.1688 362.81,333.0188 344.69,341.2188 C317.47,353.5488 308.37,351.9388 282.69,367.2188 C241.72,391.5988 203.9165,424.815 182.4865,444.815" fill="none" id="UC_CHANGE-to-UC_BOOK_MGR" style="stroke:#2D6A4F;stroke-width:1.5;stroke-dasharray:7,7;"/><polygon fill="#2D6A4F" points="178.1,448.9088,187.4089,445.6924,181.7554,445.4973,181.9505,439.8438,178.1,448.9088" style="stroke:#2D6A4F;stroke-width:1.5;"/><text fill="#000000" font-family="sans-serif" font-size="12" lengthAdjust="spacing" textLength="49.377" x="283.69" y="380.6758">&#171;extend&#187;</text></g><!--link UC_CANCEL to UC_BOOK_MGR--><g class="link" data-entity-1="UC_CANCEL" data-entity-2="UC_BOOK_MGR" data-source-line="164" data-uid="lnk39" id="link_UC_CANCEL_UC_BOOK_MGR"><path d="M109.27,316.1588 C102.11,332.4288 92.53,361.0088 100.69,384.2188 C109.97,410.5988 127.8676,430.5813 143.2776,444.9213" fill="none" id="UC_CANCEL-to-UC_BOOK_MGR" style="stroke:#2D6A4F;stroke-width:1.5;stroke-dasharray:7,7;"/><polygon fill="#2D6A4F" points="147.67,449.0087,143.8063,439.9494,144.0097,445.6026,138.3565,445.8059,147.67,449.0087" style="stroke:#2D6A4F;stroke-width:1.5;"/><text fill="#000000" font-family="sans-serif" font-size="12" lengthAdjust="spacing" textLength="49.377" x="101.69" y="380.6758">&#171;extend&#187;</text></g><!--link UC_CREATE to UC_SAVE--><g class="link" data-entity-1="UC_CREATE" data-entity-2="UC_SAVE" data-source-line="166" data-uid="lnk40" id="link_UC_CREATE_UC_SAVE"><path d="M290.52,315.3788 C305.47,323.3888 325.91,333.7488 344.69,341.2188 C381.8,355.9788 393.78,351.9988 430.69,367.2188 C445.58,373.3588 447.57,378.6888 462.69,384.2188 C478.49,389.9988 483.88,386.4688 499.69,392.2188 C542.19,407.6688 582.9621,431.0308 608.5021,446.7708" fill="none" id="UC_CREATE-to-UC_SAVE" style="stroke:#2D6A4F;stroke-width:1.5;stroke-dasharray:7,7;"/><polygon fill="#2D6A4F" points="613.61,449.9188,608.0468,441.7916,609.3534,447.2955,603.8495,448.6021,613.61,449.9188" style="stroke:#2D6A4F;stroke-width:1.5;"/><text fill="#000000" font-family="sans-serif" font-size="12" lengthAdjust="spacing" textLength="51.375" x="463.69" y="380.6758">&#171;include&#187;</text></g><!--link UC_CHANGE to UC_SAVE--><g class="link" data-entity-1="UC_CHANGE" data-entity-2="UC_SAVE" data-source-line="167" data-uid="lnk41" id="link_UC_CHANGE_UC_SAVE"><path d="M444.6,315.7988 C465.49,328.0988 497.55,347.7588 523.69,367.2188 C560.01,394.2488 594.9505,426.0568 615.3105,445.2168" fill="none" id="UC_CHANGE-to-UC_SAVE" style="stroke:#2D6A4F;stroke-width:1.5;stroke-dasharray:7,7;"/><polygon fill="#2D6A4F" points="619.68,449.3288,615.8671,440.2479,616.0388,445.9021,610.3845,446.0738,619.68,449.3288" style="stroke:#2D6A4F;stroke-width:1.5;"/><text fill="#000000" font-family="sans-serif" font-size="12" lengthAdjust="spacing" textLength="51.375" x="542.69" y="380.6758">&#171;include&#187;</text></g><!--link UC_CANCEL to UC_SAVE--><g class="link" data-entity-1="UC_CANCEL" data-entity-2="UC_SAVE" data-source-line="168" data-uid="lnk42" id="link_UC_CANCEL_UC_SAVE"><path d="M136.26,315.3588 C151.4,323.7888 172.73,334.6488 192.69,341.2188 C254.88,361.6888 275.82,345.8288 337.69,367.2188 C352.91,372.4788 354.19,379.8488 369.69,384.2188 C425.41,399.9288 443.95,376.6188 499.69,392.2188 C543.99,404.6188 585.3704,429.6616 610.2604,446.3916" fill="none" id="UC_CANCEL-to-UC_SAVE" style="stroke:#2D6A4F;stroke-width:1.5;stroke-dasharray:7,7;"/><polygon fill="#2D6A4F" points="615.24,449.7388,610.0019,441.3983,611.0903,446.9495,605.5391,448.0379,615.24,449.7388" style="stroke:#2D6A4F;stroke-width:1.5;"/><text fill="#000000" font-family="sans-serif" font-size="12" lengthAdjust="spacing" textLength="51.375" x="370.69" y="380.6758">&#171;include&#187;</text></g><!--link UC_MEM_MGR to UC_VIEW_MEM--><g class="link" data-entity-1="UC_MEM_MGR" data-entity-2="UC_VIEW_MEM" data-source-line="174" data-uid="lnk43" id="link_UC_MEM_MGR_UC_VIEW_MEM"><path d="M1179.69,479.2488 C1179.69,502.9588 1179.69,543.6388 1179.69,567.0788" fill="none" id="UC_MEM_MGR-to-UC_VIEW_MEM" style="stroke:#2D6A4F;stroke-width:1.5;stroke-dasharray:7,7;"/><polygon fill="#2D6A4F" points="1179.69,573.0788,1183.69,564.0788,1179.69,568.0788,1175.69,564.0788,1179.69,573.0788" style="stroke:#2D6A4F;stroke-width:1.5;"/><text fill="#000000" font-family="sans-serif" font-size="12" lengthAdjust="spacing" textLength="51.375" x="1180.69" y="527.1758">&#171;include&#187;</text></g><!--link UC_ADD_MEM to UC_MEM_MGR--><g class="link" data-entity-1="UC_ADD_MEM" data-entity-2="UC_MEM_MGR" data-source-line="175" data-uid="lnk44" id="link_UC_ADD_MEM_UC_MEM_MGR"><path d="M1104.42,317.2988 C1110.12,333.7088 1120.36,361.4888 1131.69,384.2188 C1143.31,407.5188 1156.2558,427.9904 1166.5558,443.4004" fill="none" id="UC_ADD_MEM-to-UC_MEM_MGR" style="stroke:#2D6A4F;stroke-width:1.5;stroke-dasharray:7,7;"/><polygon fill="#2D6A4F" points="1169.89,448.3887,1168.2143,438.6835,1167.1115,444.2318,1161.5632,443.1291,1169.89,448.3887" style="stroke:#2D6A4F;stroke-width:1.5;"/><text fill="#000000" font-family="sans-serif" font-size="12" lengthAdjust="spacing" textLength="49.377" x="1132.69" y="380.6758">&#171;extend&#187;</text></g><!--link UC_EDIT_MEM to UC_MEM_MGR--><g class="link" data-entity-1="UC_EDIT_MEM" data-entity-2="UC_MEM_MGR" data-source-line="176" data-uid="lnk45" id="link_UC_EDIT_MEM_UC_MEM_MGR"><path d="M954.61,317.3688 C1001.72,347.7888 1107.0595,415.8141 1153.4895,445.7941" fill="none" id="UC_EDIT_MEM-to-UC_MEM_MGR" style="stroke:#2D6A4F;stroke-width:1.5;stroke-dasharray:7,7;"/><polygon fill="#2D6A4F" points="1158.53,449.0488,1153.139,440.8064,1154.3296,446.3365,1148.7994,447.5271,1158.53,449.0488" style="stroke:#2D6A4F;stroke-width:1.5;"/><text fill="#000000" font-family="sans-serif" font-size="12" lengthAdjust="spacing" textLength="49.377" x="1056.69" y="380.6758">&#171;extend&#187;</text></g><!--link UC_SEARCH to UC_MEM_MGR--><g class="link" data-entity-1="UC_SEARCH" data-entity-2="UC_MEM_MGR" data-source-line="177" data-uid="lnk46" id="link_UC_SEARCH_UC_MEM_MGR"><path d="M1253.51,317.3688 C1238.25,347.4088 1205.4761,411.9387 1189.9361,442.5487" fill="none" id="UC_SEARCH-to-UC_MEM_MGR" style="stroke:#2D6A4F;stroke-width:1.5;stroke-dasharray:7,7;"/><polygon fill="#2D6A4F" points="1187.22,447.8988,1194.8608,441.6844,1189.4834,443.4404,1187.7274,438.063,1187.22,447.8988" style="stroke:#2D6A4F;stroke-width:1.5;"/><text fill="#000000" font-family="sans-serif" font-size="12" lengthAdjust="spacing" textLength="49.377" x="1227.69" y="380.6758">&#171;extend&#187;</text></g><!--link UC_ADD_MEM to UC_SAVE--><g class="link" data-entity-1="UC_ADD_MEM" data-entity-2="UC_SAVE" data-source-line="179" data-uid="lnk47" id="link_UC_ADD_MEM_UC_SAVE"><path d="M1074.57,316.1788 C1058.78,324.0288 1037.85,333.8988 1018.69,341.2188 C945.01,369.3788 923.96,368.5988 848.69,392.2188 C784.04,412.5087 714.5891,435.5625 672.4491,449.6825" fill="none" id="UC_ADD_MEM-to-UC_SAVE" style="stroke:#2D6A4F;stroke-width:1.5;stroke-dasharray:7,7;"/><polygon fill="#2D6A4F" points="666.76,451.5888,676.5645,452.5221,671.5009,450.0002,674.0228,444.9366,666.76,451.5888" style="stroke:#2D6A4F;stroke-width:1.5;"/><text fill="#000000" font-family="sans-serif" font-size="12" lengthAdjust="spacing" textLength="51.375" x="937.69" y="380.6758">&#171;include&#187;</text></g><!--link UC_EDIT_MEM to UC_SAVE--><g class="link" data-entity-1="UC_EDIT_MEM" data-entity-2="UC_SAVE" data-source-line="180" data-uid="lnk48" id="link_UC_EDIT_MEM_UC_SAVE"><path d="M906.68,317.0988 C849.14,347.7888 717.1137,418.2144 662.2337,447.4944" fill="none" id="UC_EDIT_MEM-to-UC_SAVE" style="stroke:#2D6A4F;stroke-width:1.5;stroke-dasharray:7,7;"/><polygon fill="#2D6A4F" points="656.94,450.3188,666.7634,449.6114,661.3514,447.9651,662.9976,442.5531,656.94,450.3188" style="stroke:#2D6A4F;stroke-width:1.5;"/><text fill="#000000" font-family="sans-serif" font-size="12" lengthAdjust="spacing" textLength="51.375" x="810.69" y="380.6758">&#171;include&#187;</text></g><!--link UC_REVIEW to UC_SAVE--><g class="link" data-entity-1="UC_REVIEW" data-entity-2="UC_SAVE" data-source-line="186" data-uid="lnk49" id="link_UC_REVIEW_UC_SAVE"><path d="M601.16,315.8388 C605.57,328.6488 612.27,349.1288 616.69,367.2188 C623.73,396.0087 628.2639,424.4101 630.9539,443.0701" fill="none" id="UC_REVIEW-to-UC_SAVE" style="stroke:#2D6A4F;stroke-width:1.5;stroke-dasharray:7,7;"/><polygon fill="#2D6A4F" points="631.81,449.0087,634.4849,439.5301,631.0966,444.0599,626.5668,440.6716,631.81,449.0087" style="stroke:#2D6A4F;stroke-width:1.5;"/><text fill="#000000" font-family="sans-serif" font-size="12" lengthAdjust="spacing" textLength="51.375" x="620.69" y="380.6758">&#171;include&#187;</text></g><!--link UC_REPORTS to UC_ATTEND--><g class="link" data-entity-1="UC_REPORTS" data-entity-2="UC_ATTEND" data-source-line="192" data-uid="lnk50" id="link_UC_REPORTS_UC_ATTEND"><path d="M1507.29,315.4688 C1538.86,343.9188 1612.6829,410.4421 1648.2029,442.4521" fill="none" id="UC_REPORTS-to-UC_ATTEND" style="stroke:#2D6A4F;stroke-width:1.5;stroke-dasharray:7,7;"/><polygon fill="#2D6A4F" points="1652.66,446.4688,1648.6521,437.4723,1648.9457,443.1215,1643.2965,443.4151,1652.66,446.4688" style="stroke:#2D6A4F;stroke-width:1.5;"/><text fill="#000000" font-family="sans-serif" font-size="12" lengthAdjust="spacing" textLength="51.375" x="1582.69" y="380.6758">&#171;include&#187;</text></g><!--link UC_REPORTS to UC_INCOME--><g class="link" data-entity-1="UC_REPORTS" data-entity-2="UC_INCOME" data-source-line="193" data-uid="lnk51" id="link_UC_REPORTS_UC_INCOME"><path d="M1493.69,315.7388 C1493.69,344.8188 1493.69,410.8388 1493.69,441.9788" fill="none" id="UC_REPORTS-to-UC_INCOME" style="stroke:#2D6A4F;stroke-width:1.5;stroke-dasharray:7,7;"/><polygon fill="#2D6A4F" points="1493.69,447.9788,1497.69,438.9788,1493.69,442.9788,1489.69,438.9788,1493.69,447.9788" style="stroke:#2D6A4F;stroke-width:1.5;"/><text fill="#000000" font-family="sans-serif" font-size="12" lengthAdjust="spacing" textLength="51.375" x="1494.69" y="380.6758">&#171;include&#187;</text></g><!--link UC_CREATE to GMN52--><g class="link" data-entity-1="UC_CREATE" data-entity-2="GMN52" data-source-line="200" data-uid="lnk54" id="link_UC_CREATE_GMN52"><path d="M276.5,288.1288 C290.28,264.9388 321.34,219.5088 362.19,201.7188 C409.66,181.0487 2177.44,184.2788 2226.19,201.7188 C2262.46,214.6888 2295.69,243.5288 2318.37,267.0088" fill="none" id="UC_CREATE-GMN52" style="stroke:#2D6A4F;stroke-width:1.5;stroke-dasharray:7,7;"/></g><!--link UC_REVIEW to GMN55--><g class="link" data-entity-1="UC_REVIEW" data-entity-2="GMN55" data-source-line="207" data-uid="lnk57" id="link_UC_REVIEW_GMN55"><path d="M604.16,288.5088 C617.62,265.4288 648.37,219.6288 689.19,201.7188 C733.68,182.1988 2392.77,184.4987 2438.19,201.7188 C2472.65,214.7788 2503.36,243.6088 2524.12,267.0588" fill="none" id="UC_REVIEW-GMN55" style="stroke:#2D6A4F;stroke-width:1.5;stroke-dasharray:7,7;"/></g><!--link UC_SAVE to GMN58--><g class="link" data-entity-1="UC_SAVE" data-entity-2="GMN58" data-source-line="214" data-uid="lnk60" id="link_UC_SAVE_GMN58"><path d="M633.69,478.2988 C633.69,498.1088 633.69,535.3288 633.69,560.6888" fill="none" id="UC_SAVE-GMN58" style="stroke:#2D6A4F;stroke-width:1.5;stroke-dasharray:7,7;"/></g><!--link UC_INCOME to GMN61--><g class="link" data-entity-1="UC_INCOME" data-entity-2="GMN61" data-source-line="220" data-uid="lnk63" id="link_UC_INCOME_GMN61"><path d="M1503.91,448.2288 C1520.09,425.2888 1554.02,383.2288 1595.19,366.7188 C1657.07,341.9088 1682.36,344.4288 1745.19,366.7188 C1788,381.9088 1826.65,419.6988 1847.79,443.3787" fill="none" id="UC_INCOME-GMN61" style="stroke:#2D6A4F;stroke-width:1.5;stroke-dasharray:7,7;"/></g><g class="legend" data-source-line="228"><rect fill="none" height="62.8281" rx="7.5" ry="7.5" style="stroke:#000000;stroke-width:1;" width="197.585" x="2413.6656" y="636.2188"/><text fill="#000000" font-family="sans-serif" font-size="14" lengthAdjust="spacing" textLength="130.7578" x="2418.6656" y="655.752">Relationship notation</text><text fill="#000000" font-family="sans-serif" font-size="14" lengthAdjust="spacing" textLength="187.585" x="2418.6656" y="673.3613">&#171;extend&#187;  : optional behaviour</text><text fill="#000000" font-family="sans-serif" font-size="14" lengthAdjust="spacing" textLength="175.1094" x="2418.6656" y="690.9707">&#171;include&#187; : always executed</text></g><!--SRC=[pLbjRzis4FxkNq6u7ze2I-0aTk8KMG1PfjgWiLrOJh820mfQecqkUl4eAeax3DYFs2_SBzcHb6Mz-AsrEimn4eYwEzvpTxpdsBv6Fn_sgRr6Lio_qWcZdejkAOjYJf590m5_Zj1T10y4VdKPcNBYWtWlT6EF8lGENPY3tadZj0MBXYD2ZkIYBSXaWdpgZob7Ro8MJ44uZk21XvuqwTBeKOHpHERpjw1fE-6SAat3yr34Nb3aS4g32FaWGLqaGgcE7F0Y0lb3yTQYHnRC2M11aLY0Hv7Wp16nxsNUZ8dpEELX7BXcw2bWhoproSYuT49YJrXX8Fh4bn1i4aGsvMooNifcNwNKoMcj9fY0dJS6_jUW67U8MnBtDEYPJI0-CZpeZnhOHvsIy_hpoch1pvcM2RbBUVwzaZdjdXjDAoCpcZ7dCQ1HbCgS7BVKUuFpyBbi8cT3oPHDf3PiGJaDnM9EPOHMnh8syZ995AMDHktFR1I8gi4TCS1jguLnPJ78UvsnST9fdfsTfZAsAhNyfnDwxlOWP8ni3y9hzC_VVy4NVQByIEAU8quTGTJXSy1Wp2Fqn0WK-z9CbAXyqpSJxTJ-rPLWFXLaxD7hwvtXDwocrTaH_ijsetDvOFYDrkd5-Uxmvmee0saSXh0yZNOZiiwmPNMt8petpy-i0mlgh7DYjStlHwGxShHNYlvN9sGJ84wV67tU9qFOkiGNsm5rcqRZvE8mG1VTbj5e709e7dAnJuRQ5kHeEw0JesDUceS1Qk3pyrRh-m552sWt_Xu9QiBFwNOyxNRxejtO2uz-N_QsIw8PTRT31eR4BUCR8GUXsCszq2Hs5Q7LD9jdIJy_VAmppD5WMCN0f7crhWUxdceZTNHrDOjz4a1oIQHdlcgyjZ_R8zn3dS5TlsiCFyFS4mOqGsPp62JrW8WKpu4A9ivCFw0PE4EGooB10aSap8T8u6Q8hugGhFofZvRa9sDIPiBbQ5Rlm204VyLAFFc0otVcbyvmy63Zl8h5FF0QZHV89OjwfbAqYdLpEyB3BrtZyoOr-aAvm-IkWBkULyE_RD9wflInlc6pXu-oF3FmEmbHIlGbqaoDzqX0fXIDK-42-C7WuvVU-s5UoUIKY5Ifv94vnCQe435p1cvjKVbWzDyNLKZWK6-pYj4tyMq1j3u42dEHLekG_QLemMuFzyg8xu7G485hK55BwzpVu0Ufc5SoN1S5eESd9xEmaT7jbdMmoyJoZkP2FJ8lsKlhuExDgAnaKyBXf6r2P6DZQ7ueH6geILf6giZNAxlns0TtzFjocG-nnBqXK7nflnmeq2ivemXMEvFdshnblXHSuyodmN1ah_D621guifWIzNgQWT48zxjhLA17XNv6VBNDJHzkURZWlgte5BqXiGXz8fZpLY8faEmggkI9GjyGH5wW9spLS99i6VUuKgP1em5yFntTudjyY-viZ4p3ndOLtLOppz7HTQPHvjUM_IEtkZnYkSMacd9hQRaK97MgAmdHwAQ7HqRd5WEXJLId1QA2-tuu5omCY5T5c7AKW8wFC-5I_xvoTKLVP8rUNzUoD83s5Ntuk4EqaaZ9NDxqtziGA2g9FGJ69p98Y478WZHYo9c5pA4L1KwJIGelgITrNehHq2IodwWYZzsYPG_ayKnRZvI5Nk75BbtdmWxPd0zRP2l97fov3XxAv7amX46BVYQB27aXSQEVLgdy8RMV7FUqHfTikIue2IccigbkEOTBBjn3L3CWscbrdGUPn9IyBRgmKRQI5EeEQLUK5Mtjlog_f6T3-Or3CKDHF3vAk7nPYj4iV0w04gTKp2Yl3AJUDa6f2Nz3CWkockb_M40wT_PD7zis6ju1z_G7eseOMTruEPlE10edkM7yddWCfWuQlOC7w09mGOVM3V9e4iEyziOdBwZvLhqBGdKRWbjQCF6O8zHYCfHA1UB11S1TgD4SxkrmTjHDUytkwOYe1tFanz1xnXJHW8UUf-xy398-eqj_O2JIaoDYuXZU3jGTKot82wPs0jRbWrOvBkuF1GPZMEA0cgOGUk0CaAE9vnp9oUluDr24vNHWWubreO73rJc6peTG9CSqk65BWkFqzvXnwXvlmvgCXWZPKDRKHJDuHm5kCanE68yKf0-mxacz2Cd_RO7PFQ0yQxcAyhh5x-LeMq55UNGgNLD8mViXzJHJpDXS-giUO7tLHULnIMU1CPsH9mPtVIMIdY4GIOuzt8ITMEWgqblL_WK0]--></g></svg>