<svg xmlns="http://www.w3.org/2000/svg" xmlns:xlink="http://www.w3.org/1999/xlink" contentStyleType="text/css" data-diagram-type="DESCRIPTION" height="517px" preserveAspectRatio="none" style="width:2632px;height:517px;background:#FFFFFF;" version="1.1" viewBox="0 0 2632 517" width="2632px" zoomAndPan="magnify"><defs/><g><!--cluster Timetable--><g class="cluster" data-entity="Timetable" data-source-line="54" data-uid="ent0003" id="cluster_Timetable"><rect fill="#F0FAF4" height="233.5" style="stroke:#52B788;stroke-width:1.5;" width="457" x="1782.27" y="7"/><text fill="#1B4332" font-family="sans-serif" font-size="12" font-weight="bold" lengthAdjust="spacing" textLength="56.0156" x="1982.7622" y="21.457">Timetable</text></g><!--cluster Bookings--><g class="cluster" data-entity="Bookings" data-source-line="61" data-uid="ent0008" id="cluster_Bookings"><rect fill="#F0FAF4" height="226" style="stroke:#52B788;stroke-width:1.5;" width="459" x="36.27" y="161"/><text fill="#1B4332" font-family="sans-serif" font-size="12" font-weight="bold" lengthAdjust="spacing" textLength="54.668" x="238.436" y="175.457">Bookings</text></g><!--cluster Members--><g class="cluster" data-entity="Members" data-source-line="68" data-uid="ent0013" id="cluster_Members"><rect fill="#F0FAF4" height="352" style="stroke:#52B788;stroke-width:1.5;" width="491" x="844.27" y="159.5"/><text fill="#1B4332" font-family="sans-serif" font-size="12" font-weight="bold" lengthAdjust="spacing" textLength="52.6875" x="1063.4263" y="173.957">Members</text></g><!--cluster Reviews--><g class="cluster" data-entity="Reviews" data-source-line="76" data-uid="ent0019" id="cluster_Reviews"><rect fill="#F0FAF4" height="79" style="stroke:#52B788;stroke-width:1.5;" width="301" x="519.27" y="161"/><text fill="#1B4332" font-family="sans-serif" font-size="12" font-weight="bold" lengthAdjust="spacing" textLength="48.0293" x="645.7554" y="175.457">Reviews</text></g><!--cluster Reports--><g class="cluster" data-entity="Reports" data-source-line="81" data-uid="ent0022" id="cluster_Reports"><rect fill="#F0FAF4" height="227.5" style="stroke:#52B788;stroke-width:1.5;" width="352" x="1406.27" y="162"/><text fill="#1B4332" font-family="sans-serif" font-size="12" font-weight="bold" lengthAdjust="spacing" textLength="45.3398" x="1559.6001" y="176.457">Reports</text></g><!--cluster System (automatic)--><g class="cluster" data-entity="System .automatic." data-source-line="87" data-uid="ent0026" id="cluster_System .automatic."><rect fill="#F0FAF4" height="79" style="stroke:#52B788;stroke-width:1.5;" width="152" x="553.27" y="307.5"/><text fill="#1B4332" font-family="sans-serif" font-size="12" font-weight="bold" lengthAdjust="spacing" textLength="110.6953" x="573.9223" y="321.957">System (automatic)</text></g><!--entity UC_BROWSE--><g class="entity" data-entity="UC_BROWSE" data-source-line="55" data-uid="ent0004" id="entity_UC_BROWSE"><ellipse cx="1921.282" cy="209.4024" fill="#F5F5F3" rx="62.512" ry="14.9024" style="stroke:#2D6A4F;stroke-width:1.5;"/><text fill="#000000" font-family="sans-serif" font-size="12" lengthAdjust="spacing" textLength="92.0391" x="1875.2625" y="213.4493">Browse timetable</text></g><!--entity UC_FILTER_DAY--><g class="entity" data-entity="UC_FILTER_DAY" data-source-line="56" data-uid="ent0005" id="entity_UC_FILTER_DAY"><ellipse cx="2174.4833" cy="58.1729" fill="#F5F5F3" rx="49.2133" ry="13.6729" style="stroke:#2D6A4F;stroke-width:1.5;"/><text fill="#000000" font-family="sans-serif" font-size="12" lengthAdjust="spacing" textLength="65.3555" x="2141.8056" y="62.2198">Filter by day</text></g><!--entity UC_FILTER_EX--><g class="entity" data-entity="UC_FILTER_EX" data-source-line="57" data-uid="ent0006" id="entity_UC_FILTER_EX"><ellipse cx="2017.2611" cy="57.8982" fill="#F5F5F3" rx="72.4911" ry="16.8982" style="stroke:#2D6A4F;stroke-width:1.5;"/><text fill="#000000" font-family="sans-serif" font-size="12" lengthAdjust="spacing" textLength="116.707" x="1958.9076" y="61.9451">Filter by exercise type</text></g><!--entity UC_FILTER_WK--><g class="entity" data-entity="UC_FILTER_WK" data-source-line="58" data-uid="ent0007" id="entity_UC_FILTER_WK"><ellipse cx="1854.1111" cy="58.1729" fill="#F5F5F3" rx="55.3411" ry="13.6729" style="stroke:#2D6A4F;stroke-width:1.5;"/><text fill="#000000" font-family="sans-serif" font-size="12" lengthAdjust="spacing" textLength="74.0215" x="1817.1004" y="62.2198">Filter by week</text></g><!--entity UC_BOOK_MGR--><g class="entity" data-entity="UC_BOOK_MGR" data-source-line="62" data-uid="ent0009" id="entity_UC_BOOK_MGR"><ellipse cx="159.3302" cy="356.112" fill="#F5F5F3" rx="63.5602" ry="15.112" style="stroke:#2D6A4F;stroke-width:1.5;"/><text fill="#000000" font-family="sans-serif" font-size="12" lengthAdjust="spacing" textLength="94.7344" x="111.963" y="360.1589">Manage bookings</text></g><!--entity UC_CREATE--><g class="entity" data-entity="UC_CREATE" data-source-line="63" data-uid="ent0010" id="entity_UC_CREATE"><ellipse cx="264.2662" cy="209.5992" fill="#F5F5F3" rx="58.4962" ry="14.0992" style="stroke:#2D6A4F;stroke-width:1.5;"/><text fill="#000000" font-family="sans-serif" font-size="12" lengthAdjust="spacing" textLength="81.3867" x="223.5729" y="213.6461">Create booking</text></g><!--entity UC_CHANGE--><g class="entity" data-entity="UC_CHANGE" data-source-line="64" data-uid="ent0011" id="entity_UC_CHANGE"><ellipse cx="418.5087" cy="209.5477" fill="#F5F5F3" rx="60.7387" ry="14.5477" style="stroke:#2D6A4F;stroke-width:1.5;"/><text fill="#000000" font-family="sans-serif" font-size="12" lengthAdjust="spacing" textLength="87.4043" x="374.8066" y="213.5946">Change booking</text></g><!--entity UC_CANCEL--><g class="entity" data-entity="UC_CANCEL" data-source-line="65" data-uid="ent0012" id="entity_UC_CANCEL"><ellipse cx="111.2579" cy="209.6976" fill="#F5F5F3" rx="58.9879" ry="14.1976" style="stroke:#2D6A4F;stroke-width:1.5;"/><text fill="#000000" font-family="sans-serif" font-size="12" lengthAdjust="spacing" textLength="82.7227" x="69.8966" y="213.7445">Cancel booking</text></g><!--entity UC_MEM_MGR--><g class="entity" data-entity="UC_MEM_MGR" data-source-line="69" data-uid="ent0014" id="entity_UC_MEM_MGR"><ellipse cx="1175.1055" cy="355.7671" fill="#F5F5F3" rx="64.3355" ry="15.2671" style="stroke:#2D6A4F;stroke-width:1.5;"/><text fill="#000000" font-family="sans-serif" font-size="12" lengthAdjust="spacing" textLength="96.709" x="1126.751" y="359.814">Manage members</text></g><!--entity UC_VIEW_MEM--><g class="entity" data-entity="UC_VIEW_MEM" data-source-line="70" data-uid="ent0015" id="entity_UC_VIEW_MEM"><ellipse cx="1175.3141" cy="480.6088" fill="#F5F5F3" rx="63.5441" ry="15.1088" style="stroke:#2D6A4F;stroke-width:1.5;"/><text fill="#000000" font-family="sans-serif" font-size="12" lengthAdjust="spacing" textLength="94.6934" x="1127.9674" y="484.6557">View all members</text></g><!--entity UC_ADD_MEM--><g class="entity" data-entity="UC_ADD_MEM" data-source-line="71" data-uid="ent0016" id="entity_UC_ADD_MEM"><ellipse cx="1095.0602" cy="209.558" fill="#F5F5F3" rx="63.2902" ry="15.058" style="stroke:#2D6A4F;stroke-width:1.5;"/><text fill="#000000" font-family="sans-serif" font-size="12" lengthAdjust="spacing" textLength="94.043" x="1048.0387" y="213.6049">Add new member</text></g><!--entity UC_EDIT_MEM--><g class="entity" data-entity="UC_EDIT_MEM" data-source-line="72" data-uid="ent0017" id="entity_UC_EDIT_MEM"><ellipse cx="928.3481" cy="209.5156" fill="#F5F5F3" rx="68.0781" ry="16.0156" style="stroke:#2D6A4F;stroke-width:1.5;"/><text fill="#000000" font-family="sans-serif" font-size="12" lengthAdjust="spacing" textLength="106.043" x="875.3266" y="213.5625">Edit member details</text></g><!--entity UC_SEARCH--><g class="entity" data-entity="UC_SEARCH" data-source-line="73" data-uid="ent0018" id="entity_UC_SEARCH"><ellipse cx="1256.0219" cy="209.3504" fill="#F5F5F3" rx="62.2519" ry="14.8504" style="stroke:#2D6A4F;stroke-width:1.5;"/><text fill="#000000" font-family="sans-serif" font-size="12" lengthAdjust="spacing" textLength="91.3652" x="1210.3393" y="213.3972">Search members</text></g><!--entity UC_REVIEW--><g class="entity" data-entity="UC_REVIEW" data-source-line="77" data-uid="ent0020" id="entity_UC_REVIEW"><ellipse cx="592.0557" cy="209.6729" fill="#F5F5F3" rx="56.2857" ry="13.6729" style="stroke:#2D6A4F;stroke-width:1.5;"/><text fill="#000000" font-family="sans-serif" font-size="12" lengthAdjust="spacing" textLength="75.3574" x="554.377" y="213.7198">Submit review</text></g><!--entity UC_VIEW_REV--><g class="entity" data-entity="UC_VIEW_REV" data-source-line="78" data-uid="ent0021" id="entity_UC_VIEW_REV"><ellipse cx="744.2388" cy="209.3938" fill="#F5F5F3" rx="59.9688" ry="14.3938" style="stroke:#2D6A4F;stroke-width:1.5;"/><text fill="#000000" font-family="sans-serif" font-size="12" lengthAdjust="spacing" textLength="85.3594" x="701.5591" y="213.4406">View all reviews</text></g><!--entity UC_REPORTS--><g class="entity" data-entity="UC_REPORTS" data-source-line="82" data-uid="ent0023" id="entity_UC_REPORTS"><ellipse cx="1489.4279" cy="209.6729" fill="#F5F5F3" rx="50.1579" ry="13.6729" style="stroke:#2D6A4F;stroke-width:1.5;"/><text fill="#000000" font-family="sans-serif" font-size="12" lengthAdjust="spacing" textLength="66.6914" x="1456.0822" y="213.7198">View reports</text></g><!--entity UC_ATTEND--><g class="entity" data-entity="UC_ATTEND" data-source-line="83" data-uid="ent0024" id="entity_UC_ATTEND"><ellipse cx="1666.0984" cy="355.9657" fill="#F5F5F3" rx="75.3284" ry="17.4657" style="stroke:#2D6A4F;stroke-width:1.5;"/><text fill="#000000" font-family="sans-serif" font-size="12" lengthAdjust="spacing" textLength="123.4102" x="1604.3933" y="360.0126">View attendance report</text></g><!--entity UC_INCOME--><g class="entity" data-entity="UC_INCOME" data-source-line="84" data-uid="ent0025" id="entity_UC_INCOME"><ellipse cx="1489.4973" cy="356.2455" fill="#F5F5F3" rx="66.7273" ry="15.7455" style="stroke:#2D6A4F;stroke-width:1.5;"/><text fill="#000000" font-family="sans-serif" font-size="12" lengthAdjust="spacing" textLength="102.709" x="1438.1428" y="360.2923">View income report</text></g><!--entity UC_SAVE--><g class="entity" data-entity="UC_SAVE" data-source-line="88" data-uid="ent0027" id="entity_UC_SAVE"><ellipse cx="629.5004" cy="355.9461" fill="#F5F5F3" rx="60.2304" ry="14.4461" style="stroke:#2D6A4F;stroke-width:1.5;"/><text fill="#000000" font-family="sans-serif" font-size="12" lengthAdjust="spacing" textLength="86.0566" x="586.4721" y="359.993">Save data to file</text></g><!--entity Staff--><g class="entity" data-entity="Staff" data-source-line="47" data-uid="ent0002" id="entity_Staff"><ellipse cx="1215.2768" cy="29" fill="#E8F5EE" rx="8" ry="8" style="stroke:#2D6A4F;stroke-width:1.5;"/><path d="M1215.2768,37 L1215.2768,64 M1202.2768,45 L1228.2768,45 M1215.2768,64 L1202.2768,79 M1215.2768,64 L1228.2768,79" fill="none" style="stroke:#2D6A4F;stroke-width:1.5;"/><text fill="#1B4332" font-family="sans-serif" font-size="12" font-weight="bold" lengthAdjust="spacing" textLength="76.0137" x="1177.27" y="93.957">Staff Member</text></g><g class="entity" data-entity="GMN52" data-source-line="152" data-uid="ent0053" id="entity_GMN52"><path d="M2255.27,174.5 L2255.27,244.875 L2433.02,244.875 L2433.02,184.5 L2423.02,174.5 L2255.27,174.5" fill="#FFFDE7" style="stroke:#F4C430;stroke-width:0.5;"/><path d="M2423.02,174.5 L2423.02,184.5 L2433.02,184.5 L2423.02,174.5" fill="#FFFDE7" style="stroke:#F4C430;stroke-width:1;"/><text fill="#000000" font-family="sans-serif" font-size="12" lengthAdjust="spacing" textLength="52.6992" x="2261.27" y="191.957">Validates:</text><text fill="#000000" font-family="sans-serif" font-size="12" lengthAdjust="spacing" textLength="124.7109" x="2261.27" y="207.0508">- lesson not full (max 4)</text><text fill="#000000" font-family="sans-serif" font-size="12" lengthAdjust="spacing" textLength="87.3633" x="2261.27" y="222.1445">- no time conflict</text><text fill="#000000" font-family="sans-serif" font-size="12" lengthAdjust="spacing" textLength="156.75" x="2261.27" y="237.2383">- member not already booked</text></g><g class="entity" data-entity="GMN55" data-source-line="159" data-uid="ent0056" id="entity_GMN55"><path d="M2468.77,174.5 L2468.77,244.875 L2625.8305,244.875 L2625.8305,184.5 L2615.8305,174.5 L2468.77,174.5" fill="#FFFDE7" style="stroke:#F4C430;stroke-width:0.5;"/><path d="M2615.8305,174.5 L2615.8305,184.5 L2625.8305,184.5 L2615.8305,174.5" fill="#FFFDE7" style="stroke:#F4C430;stroke-width:1;"/><text fill="#000000" font-family="sans-serif" font-size="12" lengthAdjust="spacing" textLength="136.0605" x="2474.77" y="191.957">Member must be enrolled</text><text fill="#000000" font-family="sans-serif" font-size="12" lengthAdjust="spacing" textLength="131.3965" x="2474.77" y="207.0508">in the lesson to review it.</text><text fill="#000000" font-family="sans-serif" font-size="12" lengthAdjust="spacing" textLength="128.7129" x="2474.77" y="222.1445">One review per member</text><text fill="#000000" font-family="sans-serif" font-size="12" lengthAdjust="spacing" textLength="58.6992" x="2474.77" y="237.2383">per lesson.</text></g><g class="entity" data-entity="GMN58" data-source-line="166" data-uid="ent0059" id="entity_GMN58"><path d="M546.27,453 L546.27,508.2813 L712.0083,508.2813 L712.0083,463 L702.0083,453 L546.27,453" fill="#FFFDE7" style="stroke:#F4C430;stroke-width:0.5;"/><path d="M702.0083,453 L702.0083,463 L712.0083,463 L702.0083,453" fill="#FFFDE7" style="stroke:#F4C430;stroke-width:1;"/><text fill="#000000" font-family="sans-serif" font-size="12" lengthAdjust="spacing" textLength="102.0293" x="552.27" y="470.457">Writes flc-data.json</text><text fill="#000000" font-family="sans-serif" font-size="12" lengthAdjust="spacing" textLength="144.7383" x="552.27" y="485.5508">automatically &#8212; no manual</text><text fill="#000000" font-family="sans-serif" font-size="12" lengthAdjust="spacing" textLength="111.3984" x="552.27" y="500.6445">save action required.</text></g><g class="entity" data-entity="GMN61" data-source-line="172" data-uid="ent0062" id="entity_GMN61"><path d="M1777.27,336 L1777.27,376.1875 L1943.6704,376.1875 L1943.6704,346 L1933.6704,336 L1777.27,336" fill="#FFFDE7" style="stroke:#F4C430;stroke-width:0.5;"/><path d="M1933.6704,336 L1933.6704,346 L1943.6704,346 L1933.6704,336" fill="#FFFDE7" style="stroke:#F4C430;stroke-width:1;"/><text fill="#000000" font-family="sans-serif" font-size="12" lengthAdjust="spacing" textLength="145.4004" x="1783.27" y="353.457">Sorted highest income first.</text><text fill="#000000" font-family="sans-serif" font-size="12" lengthAdjust="spacing" textLength="114.0645" x="1783.27" y="368.5508">Highlights top earner.</text></g><!--link Staff to UC_BROWSE--><g class="link" data-entity-1="Staff" data-entity-2="UC_BROWSE" data-source-line="95" data-uid="lnk28" id="link_Staff_UC_BROWSE"><path d="M1253.59,63.28 C1342.99,73.76 1571.93,103.41 1758.27,151.5 C1805.59,163.71 1853.1474,181.2811 1885.5174,194.0311" fill="none" id="Staff-to-UC_BROWSE" style="stroke:#2D6A4F;stroke-width:1.5;"/><polygon fill="#2D6A4F" points="1891.1,196.23,1884.1921,189.21,1886.4479,194.3976,1881.2602,196.6534,1891.1,196.23" style="stroke:#2D6A4F;stroke-width:1.5;"/></g><!--link Staff to UC_BOOK_MGR--><g class="link" data-entity-1="Staff" data-entity-2="UC_BOOK_MGR" data-source-line="96" data-uid="lnk29" id="link_Staff_UC_BOOK_MGR"><path d="M1176.97,58.99 C982.92,59.36 114.53,65.78 35.27,151.5 C6,183.15 17.49,209.23 35.27,248.5 C55.29,292.7 98.6535,322.4409 128.7235,339.2609" fill="none" id="Staff-to-UC_BOOK_MGR" style="stroke:#2D6A4F;stroke-width:1.5;"/><polygon fill="#2D6A4F" points="133.96,342.19,128.058,334.3054,129.5963,339.7491,124.1526,341.2874,133.96,342.19" style="stroke:#2D6A4F;stroke-width:1.5;"/></g><!--link Staff to UC_MEM_MGR--><g class="link" data-entity-1="Staff" data-entity-2="UC_MEM_MGR" data-source-line="97" data-uid="lnk30" id="link_Staff_UC_MEM_MGR"><path d="M1253.33,76.23 C1281.96,91.5 1319.11,116.77 1336.27,151.5 C1355.38,190.15 1355.97,210.15 1336.27,248.5 C1310.86,297.99 1256.3111,325.9288 1217.1511,340.9688" fill="none" id="Staff-to-UC_MEM_MGR" style="stroke:#2D6A4F;stroke-width:1.5;"/><polygon fill="#2D6A4F" points="1211.55,343.12,1221.3858,343.6273,1216.2176,341.3273,1218.5175,336.1591,1211.55,343.12" style="stroke:#2D6A4F;stroke-width:1.5;"/></g><!--link Staff to UC_REVIEW--><g class="link" data-entity-1="Staff" data-entity-2="UC_REVIEW" data-source-line="98" data-uid="lnk31" id="link_Staff_UC_REVIEW"><path d="M1176.97,59.26 C1085.1,61.18 846.57,73.88 667.27,151.5 C642.51,162.22 622.8528,178.6599 608.9228,191.9399" fill="none" id="Staff-to-UC_REVIEW" style="stroke:#2D6A4F;stroke-width:1.5;"/><polygon fill="#2D6A4F" points="604.58,196.08,613.8542,192.765,608.199,192.6299,608.3341,186.9747,604.58,196.08" style="stroke:#2D6A4F;stroke-width:1.5;"/></g><!--link Staff to UC_VIEW_REV--><g class="link" data-entity-1="Staff" data-entity-2="UC_VIEW_REV" data-source-line="99" data-uid="lnk32" id="link_Staff_UC_VIEW_REV"><path d="M1177.08,64.96 C1108.61,76.43 961.19,104.64 844.27,151.5 C814.41,163.47 787.5794,179.6428 768.0494,192.4328" fill="none" id="Staff-to-UC_VIEW_REV" style="stroke:#2D6A4F;stroke-width:1.5;"/><polygon fill="#2D6A4F" points="763.03,195.72,772.7506,194.1355,767.2128,192.9807,768.3677,187.443,763.03,195.72" style="stroke:#2D6A4F;stroke-width:1.5;"/></g><!--link Staff to UC_REPORTS--><g class="link" data-entity-1="Staff" data-entity-2="UC_REPORTS" data-source-line="100" data-uid="lnk33" id="link_Staff_UC_REPORTS"><path d="M1253.61,68.54 C1292.01,79.12 1351.9,98.49 1398.27,126.5 C1430.86,146.18 1458.3251,173.9893 1474.3351,191.6093" fill="none" id="Staff-to-UC_REPORTS" style="stroke:#2D6A4F;stroke-width:1.5;"/><polygon fill="#2D6A4F" points="1478.37,196.05,1475.2781,186.6991,1475.0076,192.3494,1469.3572,192.0789,1478.37,196.05" style="stroke:#2D6A4F;stroke-width:1.5;"/></g><!--link UC_FILTER_DAY to UC_BROWSE--><g class="link" data-entity-1="UC_FILTER_DAY" data-entity-2="UC_BROWSE" data-source-line="106" data-uid="lnk34" id="link_UC_FILTER_DAY_UC_BROWSE"><path d="M2154.84,70.48 C2108.67,97.76 1997.7852,163.2871 1948.8052,192.2371" fill="none" id="UC_FILTER_DAY-to-UC_BROWSE" style="stroke:#2D6A4F;stroke-width:1.5;stroke-dasharray:7,7;"/><polygon fill="#2D6A4F" points="1943.64,195.29,1953.4231,194.1541,1947.9444,192.7459,1949.3525,187.2671,1943.64,195.29" style="stroke:#2D6A4F;stroke-width:1.5;"/><text fill="#000000" font-family="sans-serif" font-size="12" lengthAdjust="spacing" textLength="49.377" x="2056.27" y="139.957">&#171;extend&#187;</text></g><!--link UC_FILTER_EX to UC_BROWSE--><g class="link" data-entity-1="UC_FILTER_EX" data-entity-2="UC_BROWSE" data-source-line="107" data-uid="lnk35" id="link_UC_FILTER_EX_UC_BROWSE"><path d="M2007,75 C1988.14,104.38 1951.5122,161.4114 1933.5822,189.3314" fill="none" id="UC_FILTER_EX-to-UC_BROWSE" style="stroke:#2D6A4F;stroke-width:1.5;stroke-dasharray:7,7;"/><polygon fill="#2D6A4F" points="1930.34,194.38,1938.569,188.9685,1933.0418,190.1728,1931.8375,184.6457,1930.34,194.38" style="stroke:#2D6A4F;stroke-width:1.5;"/><text fill="#000000" font-family="sans-serif" font-size="12" lengthAdjust="spacing" textLength="49.377" x="1972.27" y="139.957">&#171;extend&#187;</text></g><!--link UC_FILTER_WK to UC_BROWSE--><g class="link" data-entity-1="UC_FILTER_WK" data-entity-2="UC_BROWSE" data-source-line="108" data-uid="lnk36" id="link_UC_FILTER_WK_UC_BROWSE"><path d="M1859.87,71.49 C1872.26,99.14 1899.4852,159.8952 1912.5152,188.9552" fill="none" id="UC_FILTER_WK-to-UC_BROWSE" style="stroke:#2D6A4F;stroke-width:1.5;stroke-dasharray:7,7;"/><polygon fill="#2D6A4F" points="1914.97,194.43,1914.9377,184.5812,1912.9243,189.8676,1907.6379,187.8543,1914.97,194.43" style="stroke:#2D6A4F;stroke-width:1.5;"/><text fill="#000000" font-family="sans-serif" font-size="12" lengthAdjust="spacing" textLength="49.377" x="1892.27" y="139.957">&#171;extend&#187;</text></g><!--link UC_CREATE to UC_BOOK_MGR--><g class="link" data-entity-1="UC_CREATE" data-entity-2="UC_BOOK_MGR" data-source-line="114" data-uid="lnk37" id="link_UC_CREATE_UC_BOOK_MGR"><path d="M243.93,222.85 C226.65,234.29 202.32,252.78 187.27,274.5 C172.94,295.18 166.5193,318.0152 162.9993,334.9752" fill="none" id="UC_CREATE-to-UC_BOOK_MGR" style="stroke:#2D6A4F;stroke-width:1.5;stroke-dasharray:7,7;"/><polygon fill="#2D6A4F" points="161.78,340.85,167.5255,332.8507,162.7961,335.9543,159.6924,331.2249,161.78,340.85" style="stroke:#2D6A4F;stroke-width:1.5;"/><text fill="#000000" font-family="sans-serif" font-size="12" lengthAdjust="spacing" textLength="49.377" x="188.27" y="287.957">&#171;extend&#187;</text></g><!--link UC_CHANGE to UC_BOOK_MGR--><g class="link" data-entity-1="UC_CHANGE" data-entity-2="UC_BOOK_MGR" data-source-line="115" data-uid="lnk38" id="link_UC_CHANGE_UC_BOOK_MGR"><path d="M393.85,222.84 C378.56,230.45 358.39,240.3 340.27,248.5 C313.05,260.83 304.55,260.28 278.27,274.5 C240.32,295.03 204.1149,320.9732 181.5149,337.9732" fill="none" id="UC_CHANGE-to-UC_BOOK_MGR" style="stroke:#2D6A4F;stroke-width:1.5;stroke-dasharray:7,7;"/><polygon fill="#2D6A4F" points="176.72,341.58,186.3169,339.3664,180.7158,338.5743,181.5078,332.9732,176.72,341.58" style="stroke:#2D6A4F;stroke-width:1.5;"/><text fill="#000000" font-family="sans-serif" font-size="12" lengthAdjust="spacing" textLength="49.377" x="279.27" y="287.957">&#171;extend&#187;</text></g><!--link UC_CANCEL to UC_BOOK_MGR--><g class="link" data-entity-1="UC_CANCEL" data-entity-2="UC_BOOK_MGR" data-source-line="116" data-uid="lnk39" id="link_UC_CANCEL_UC_BOOK_MGR"><path d="M104.46,223.59 C96.9,240.01 86.9,268.76 96.27,291.5 C104.97,312.61 119.6627,326.7932 134.6727,338.1332" fill="none" id="UC_CANCEL-to-UC_BOOK_MGR" style="stroke:#2D6A4F;stroke-width:1.5;stroke-dasharray:7,7;"/><polygon fill="#2D6A4F" points="139.46,341.75,134.6902,333.1332,135.4705,338.736,129.8678,339.5163,139.46,341.75" style="stroke:#2D6A4F;stroke-width:1.5;"/><text fill="#000000" font-family="sans-serif" font-size="12" lengthAdjust="spacing" textLength="49.377" x="97.27" y="287.957">&#171;extend&#187;</text></g><!--link UC_CREATE to UC_SAVE--><g class="link" data-entity-1="UC_CREATE" data-entity-2="UC_SAVE" data-source-line="118" data-uid="lnk40" id="link_UC_CREATE_UC_SAVE"><path d="M286.1,222.66 C301.05,230.67 321.49,241.03 340.27,248.5 C377.38,263.26 389.36,259.28 426.27,274.5 C441.16,280.64 443.15,285.97 458.27,291.5 C474.07,297.28 479.21,294.48 495.27,299.5 C533.97,311.59 571.5452,327.8992 598.1552,340.2192" fill="none" id="UC_CREATE-to-UC_SAVE" style="stroke:#2D6A4F;stroke-width:1.5;stroke-dasharray:7,7;"/><polygon fill="#2D6A4F" points="603.6,342.74,597.1134,335.3289,599.0627,340.6393,593.7523,342.5886,603.6,342.74" style="stroke:#2D6A4F;stroke-width:1.5;"/><text fill="#000000" font-family="sans-serif" font-size="12" lengthAdjust="spacing" textLength="51.375" x="459.27" y="287.957">&#171;include&#187;</text></g><!--link UC_CHANGE to UC_SAVE--><g class="link" data-entity-1="UC_CHANGE" data-entity-2="UC_SAVE" data-source-line="119" data-uid="lnk41" id="link_UC_CHANGE_UC_SAVE"><path d="M439.43,223.33 C460.05,235.98 492.17,256.03 519.27,274.5 C552.71,297.29 585.7793,321.9244 607.2193,338.1844" fill="none" id="UC_CHANGE-to-UC_SAVE" style="stroke:#2D6A4F;stroke-width:1.5;stroke-dasharray:7,7;"/><polygon fill="#2D6A4F" points="612,341.81,607.2461,333.1844,608.0161,338.7886,602.4119,339.5587,612,341.81" style="stroke:#2D6A4F;stroke-width:1.5;"/><text fill="#000000" font-family="sans-serif" font-size="12" lengthAdjust="spacing" textLength="51.375" x="541.27" y="287.957">&#171;include&#187;</text></g><!--link UC_CANCEL to UC_SAVE--><g class="link" data-entity-1="UC_CANCEL" data-entity-2="UC_SAVE" data-source-line="120" data-uid="lnk42" id="link_UC_CANCEL_UC_SAVE"><path d="M131.84,222.64 C146.98,231.07 168.31,241.93 188.27,248.5 C250.46,268.97 271.39,253.11 333.27,274.5 C348.49,279.76 349.77,287.13 365.27,291.5 C420.99,307.21 438.87,286.47 495.27,299.5 C535.75,308.85 574.3707,326.4924 600.5107,339.7724" fill="none" id="UC_CANCEL-to-UC_SAVE" style="stroke:#2D6A4F;stroke-width:1.5;stroke-dasharray:7,7;"/><polygon fill="#2D6A4F" points="605.86,342.49,599.6478,334.8474,601.4023,340.2253,596.0244,341.9798,605.86,342.49" style="stroke:#2D6A4F;stroke-width:1.5;"/><text fill="#000000" font-family="sans-serif" font-size="12" lengthAdjust="spacing" textLength="51.375" x="366.27" y="287.957">&#171;include&#187;</text></g><!--link UC_MEM_MGR to UC_VIEW_MEM--><g class="link" data-entity-1="UC_MEM_MGR" data-entity-2="UC_VIEW_MEM" data-source-line="126" data-uid="lnk43" id="link_UC_MEM_MGR_UC_VIEW_MEM"><path d="M1175.27,371.53 C1175.27,395.24 1175.27,435.92 1175.27,459.36" fill="none" id="UC_MEM_MGR-to-UC_VIEW_MEM" style="stroke:#2D6A4F;stroke-width:1.5;stroke-dasharray:7,7;"/><polygon fill="#2D6A4F" points="1175.27,465.36,1179.27,456.36,1175.27,460.36,1171.27,456.36,1175.27,465.36" style="stroke:#2D6A4F;stroke-width:1.5;"/><text fill="#000000" font-family="sans-serif" font-size="12" lengthAdjust="spacing" textLength="51.375" x="1176.27" y="419.457">&#171;include&#187;</text></g><!--link UC_ADD_MEM to UC_MEM_MGR--><g class="link" data-entity-1="UC_ADD_MEM" data-entity-2="UC_MEM_MGR" data-source-line="127" data-uid="lnk44" id="link_UC_ADD_MEM_UC_MEM_MGR"><path d="M1099.51,224.49 C1104.82,241.06 1114.76,269.22 1127.27,291.5 C1137.42,309.57 1148.2877,323.6869 1158.7477,336.0669" fill="none" id="UC_ADD_MEM-to-UC_MEM_MGR" style="stroke:#2D6A4F;stroke-width:1.5;stroke-dasharray:7,7;"/><polygon fill="#2D6A4F" points="1162.62,340.65,1159.8669,331.1938,1159.3931,336.8307,1153.7561,336.3569,1162.62,340.65" style="stroke:#2D6A4F;stroke-width:1.5;"/><text fill="#000000" font-family="sans-serif" font-size="12" lengthAdjust="spacing" textLength="49.377" x="1128.27" y="287.957">&#171;extend&#187;</text></g><!--link UC_EDIT_MEM to UC_MEM_MGR--><g class="link" data-entity-1="UC_EDIT_MEM" data-entity-2="UC_MEM_MGR" data-source-line="128" data-uid="lnk45" id="link_UC_EDIT_MEM_UC_MEM_MGR"><path d="M950.77,224.92 C976.69,241.41 1020.68,269.03 1059.27,291.5 C1090.03,309.41 1120.7646,326.0888 1144.4146,338.6888" fill="none" id="UC_EDIT_MEM-to-UC_MEM_MGR" style="stroke:#2D6A4F;stroke-width:1.5;stroke-dasharray:7,7;"/><polygon fill="#2D6A4F" points="1149.71,341.51,1143.6478,333.748,1145.2972,339.159,1139.8862,340.8084,1149.71,341.51" style="stroke:#2D6A4F;stroke-width:1.5;"/><text fill="#000000" font-family="sans-serif" font-size="12" lengthAdjust="spacing" textLength="49.377" x="1060.27" y="287.957">&#171;extend&#187;</text></g><!--link UC_SEARCH to UC_MEM_MGR--><g class="link" data-entity-1="UC_SEARCH" data-entity-2="UC_MEM_MGR" data-source-line="129" data-uid="lnk46" id="link_UC_SEARCH_UC_MEM_MGR"><path d="M1248.36,224.62 C1232.91,252.17 1201.8443,307.6065 1186.2743,335.3765" fill="none" id="UC_SEARCH-to-UC_MEM_MGR" style="stroke:#2D6A4F;stroke-width:1.5;stroke-dasharray:7,7;"/><polygon fill="#2D6A4F" points="1183.34,340.61,1191.2305,334.7159,1185.7853,336.2487,1184.2525,330.8035,1183.34,340.61" style="stroke:#2D6A4F;stroke-width:1.5;"/><text fill="#000000" font-family="sans-serif" font-size="12" lengthAdjust="spacing" textLength="49.377" x="1218.27" y="287.957">&#171;extend&#187;</text></g><!--link UC_ADD_MEM to UC_SAVE--><g class="link" data-entity-1="UC_ADD_MEM" data-entity-2="UC_SAVE" data-source-line="131" data-uid="lnk47" id="link_UC_ADD_MEM_UC_SAVE"><path d="M1070.56,223.42 C1054.76,231.36 1033.65,241.33 1014.27,248.5 C949.64,272.41 759.1234,321.9054 674.5434,343.5054" fill="none" id="UC_ADD_MEM-to-UC_SAVE" style="stroke:#2D6A4F;stroke-width:1.5;stroke-dasharray:7,7;"/><polygon fill="#2D6A4F" points="668.73,344.99,678.4399,346.6387,673.5745,343.7528,676.4604,338.8874,668.73,344.99" style="stroke:#2D6A4F;stroke-width:1.5;"/><text fill="#000000" font-family="sans-serif" font-size="12" lengthAdjust="spacing" textLength="51.375" x="924.27" y="287.957">&#171;include&#187;</text></g><!--link UC_EDIT_MEM to UC_SAVE--><g class="link" data-entity-1="UC_EDIT_MEM" data-entity-2="UC_SAVE" data-source-line="132" data-uid="lnk48" id="link_UC_EDIT_MEM_UC_SAVE"><path d="M900.14,224.09 C842.14,252.13 715.4423,313.3594 659.9623,340.1694" fill="none" id="UC_EDIT_MEM-to-UC_SAVE" style="stroke:#2D6A4F;stroke-width:1.5;stroke-dasharray:7,7;"/><polygon fill="#2D6A4F" points="654.56,342.78,664.4038,342.4656,659.0619,340.6045,660.9231,335.2626,654.56,342.78" style="stroke:#2D6A4F;stroke-width:1.5;"/><text fill="#000000" font-family="sans-serif" font-size="12" lengthAdjust="spacing" textLength="51.375" x="788.27" y="287.957">&#171;include&#187;</text></g><!--link UC_REVIEW to UC_SAVE--><g class="link" data-entity-1="UC_REVIEW" data-entity-2="UC_SAVE" data-source-line="138" data-uid="lnk49" id="link_UC_REVIEW_UC_SAVE"><path d="M596.62,223.15 C600.93,235.98 607.57,256.48 612.27,274.5 C618.34,297.72 622.6538,319.2328 625.6738,335.3328" fill="none" id="UC_REVIEW-to-UC_SAVE" style="stroke:#2D6A4F;stroke-width:1.5;stroke-dasharray:7,7;"/><polygon fill="#2D6A4F" points="626.78,341.23,629.0522,331.6468,625.8582,336.3157,621.1893,333.1217,626.78,341.23" style="stroke:#2D6A4F;stroke-width:1.5;"/><text fill="#000000" font-family="sans-serif" font-size="12" lengthAdjust="spacing" textLength="51.375" x="616.27" y="287.957">&#171;include&#187;</text></g><!--link UC_REPORTS to UC_ATTEND--><g class="link" data-entity-1="UC_REPORTS" data-entity-2="UC_ATTEND" data-source-line="144" data-uid="lnk50" id="link_UC_REPORTS_UC_ATTEND"><path d="M1504.06,222.57 C1535.88,248.55 1606.2219,305.9759 1641.9819,335.1659" fill="none" id="UC_REPORTS-to-UC_ATTEND" style="stroke:#2D6A4F;stroke-width:1.5;stroke-dasharray:7,7;"/><polygon fill="#2D6A4F" points="1646.63,338.96,1642.1873,330.1701,1642.7566,335.7982,1637.1285,336.3675,1646.63,338.96" style="stroke:#2D6A4F;stroke-width:1.5;"/><text fill="#000000" font-family="sans-serif" font-size="12" lengthAdjust="spacing" textLength="51.375" x="1589.27" y="287.957">&#171;include&#187;</text></g><!--link UC_REPORTS to UC_INCOME--><g class="link" data-entity-1="UC_REPORTS" data-entity-2="UC_INCOME" data-source-line="145" data-uid="lnk51" id="link_UC_REPORTS_UC_INCOME"><path d="M1489.27,223.07 C1489.27,249.71 1489.27,305.74 1489.27,334.22" fill="none" id="UC_REPORTS-to-UC_INCOME" style="stroke:#2D6A4F;stroke-width:1.5;stroke-dasharray:7,7;"/><polygon fill="#2D6A4F" points="1489.27,340.22,1493.27,331.22,1489.27,335.22,1485.27,331.22,1489.27,340.22" style="stroke:#2D6A4F;stroke-width:1.5;"/><text fill="#000000" font-family="sans-serif" font-size="12" lengthAdjust="spacing" textLength="51.375" x="1490.27" y="287.957">&#171;include&#187;</text></g><!--link UC_CREATE to GMN52--><g class="link" data-entity-1="UC_CREATE" data-entity-2="GMN52" data-source-line="152" data-uid="lnk54" id="link_UC_CREATE_GMN52"><path d="M274.09,195.49 C289.29,175.18 320.66,138.41 357.77,124 C454.31,86.52 2122.99,92.93 2221.77,124 C2253.57,134 2284.31,155.5 2307.04,174.44" fill="none" id="UC_CREATE-GMN52" style="stroke:#2D6A4F;stroke-width:1.5;stroke-dasharray:7,7;"/></g><!--link UC_REVIEW to GMN55--><g class="link" data-entity-1="UC_REVIEW" data-entity-2="GMN55" data-source-line="159" data-uid="lnk57" id="link_UC_REVIEW_GMN55"><path d="M601.46,196.17 C616.25,176.01 647.51,138.59 684.77,124 C775.26,88.59 2341.63,93.18 2433.77,124 C2463.72,134.02 2492.09,155.39 2512.98,174.26" fill="none" id="UC_REVIEW-GMN55" style="stroke:#2D6A4F;stroke-width:1.5;stroke-dasharray:7,7;"/></g><!--link UC_SAVE to GMN58--><g class="link" data-entity-1="UC_SAVE" data-entity-2="GMN58" data-source-line="166" data-uid="lnk60" id="link_UC_SAVE_GMN58"><path d="M629.27,370.58 C629.27,390.39 629.27,427.61 629.27,452.97" fill="none" id="UC_SAVE-GMN58" style="stroke:#2D6A4F;stroke-width:1.5;stroke-dasharray:7,7;"/></g><!--link UC_INCOME to GMN61--><g class="link" data-entity-1="UC_INCOME" data-entity-2="GMN61" data-source-line="172" data-uid="lnk63" id="link_UC_INCOME_GMN61"><path d="M1502.1,340.54 C1519.69,320.68 1553.4,287.21 1590.77,274 C1653.63,251.78 1677.1,254.25 1740.77,274 C1779.71,286.07 1817.22,315.7 1839.52,335.84" fill="none" id="UC_INCOME-GMN61" style="stroke:#2D6A4F;stroke-width:1.5;stroke-dasharray:7,7;"/></g><!--SRC=[vLbVRzis47_FfpYu3ss1sMZ-jKLH591jkJKQsuMb9EjJGKjKp8KIFP9guWu3zX7si7t1Vf8TILcHB3lkmu31dXF447a_wkxuuztnyXI-__td_luUFOL1Bh_HX54UmmLbAfSKUZJJ-FNzZx_WKk4ZmJzzHcuaIH4m4d7EAS0RUDMRZ8vVd9pZe1Tf8S4C1fea2QGqdL49pnJBRb0uL_WW1NUBnbJTQh40ibWyHsmGYGMrM8zpKEmUL2GfpHIaA45ZqC8i017geL1-lpr-f6vPjY3eIr1wYHvHMh98voclpCn8T7iZHPx5FS6jOvyCxASY4zE4v5mFHAR793KE34Yc0YfPibagOD-CrF59LGTqhF4h_7Q4Kz1jlDTzdWpEyUVKoGWPKrcVjp8d_PVUsQ0Y4yvPT9jHfKgPuywvdVUa57VD9MfhM9dc4dQDtwic4Ckz7GRuhmVdll-l6M3ykK5_U7BSFJizFIbb0hl5zKzNyBXkWQIH9lQWxDg65mDlSFQu5USdtLUlN_y7LcH2xpPWCEZxhnutO73MEpjzOTP-klVHrUk5a-d-nontn5ekjeziR6y1KIxO7y8-1P-3q1z1Tt8vxdlJppPDYOnMJkO2CvZBIs2OlJ0WZJJ71ES657obKhE8SBw4HCY8AinSYxOMxPdGMgJ0oLBaUl_PyE2KLiXIgicCqrPnybVvfDN5w8tV-a6W-21jBdjVkjF9TU3N8GF6DNfvjeIOB5kLaE0WW-55w4-_zBtFss3qdig8cRSk5xHLX_a_RqFTKNhRslAowuyc3bKCxWfXjbmrx1sHZDnGc9NpQ_PE9X-_ZDvFww2Uf4INe8OIlQdlXMjEwirHaqSW7xpn-tK8oIBAjqEySS-_MBFJ7VAjPgQhwRMrHlweQUKLetU0nwA1SfYheNzjW7MG5yUG8IujeitQYxn-ludnOwPNfMUCj6EyU9V3-FrXs0G5bCXeljMYmFUclGzhtfdIhsXJqpj1FajH1McdcmoU-iRMBSwHgpMRpa5SGu65aBgfW5rDhYOtAF1fCWs3JHfeJRFO4AM0jqfFXw4_xc-0i2mIQKNyuJN3CTuC_3MLWwNID8Ld9CTOI31GFc-wZtobUFOrCIL_mXw2Hh4LtfL_G6K1X1Fy_TI-yA_y2xWCVEXvWH_iVtvmPKAx_QuIwEjZgs1O6rt5ZjfWSMHgO-MPM9Dqt3u0UeJ3aHzwtGlVrY69pLGA2Dx9nK8paH6-_oIf9NJeT2faiRs0js_flGb9xzuTLPCu_AZezSSTeWV04tEEXkFtWQK99PZ519Qfn504618cA_a2qLomY1u4RLnLL6vk4KjidbZdWgk6VapKLa6xHPiQcBHKvbaZYucHvp7TfC8EsPeEZyWU07SnsdVzgQCkPqfZ3NH7bWgu8B7wwO781nZtYaHNngTL0Ro94aMTMygMs2Q3L-Nj3uYweXPshhf9Wmej6zgkgx1LzW08x2gJu20OwMpvVmIUeawqWMScz1nKFciNLwPL459pSPVX9UI6wZcL1xB5pknYZzsjRiinNfDrrxa3fKFtCXYE_I20wINMs-D9U0WtCDkAb-ncha4ajKxI5U4CRzXKlS67Dd2g51QBA0z9pZayIyazd3stSvcmtJk8H9Pm5caxM7HN381mIKcyj7qb6XzXnh3_0jZmzhBluRfAaEQOxsSKQ2O5vuW5O7ZSvdIb3rx_NJi4cExWxCIsOks0wSCw9N3SF3X8P_tzHS_LAM0x1m3Nag7baF2eRReCdLyGYCDbHyAsRarSGDDJakLORm0eqvGWaIsg9VqrPvB6dSUiBReV006651h37ESe6bpqIn8cbJNg0uvpWxDzOgpVPKPbPUL_0000]--></g></svg>